<?xml version="1.0" encoding="UTF-8"?>
<svg version="1.1" viewBox="0 0 60 60" xml:space="preserve" xmlns="http://www.w3.org/2000/svg"><style type="text/css">
	.Round_x0020_Corners_x0020_2_x0020_pt{fill:#FFFFFF;stroke:#231F20;stroke-miterlimit:10;}
	.Live_x0020_Reflect_x0020_X{fill:none;}
	.Bevel_x0020_Soft{fill:url(#SVGID_1_);}
	.Dusk{fill:#FFFFFF;}
	.Pompadour_GS{fill-rule:evenodd;clip-rule:evenodd;fill:#44ACE1;}
	.st0{fill:#FFFFFF;}
	.st1{fill:#434A54;}
	.st2{fill:#FC0F1A;}
	.st3{fill:#E8E8E8;}
</style><linearGradient id="SVGID_1_" x1="-1275" x2="-1274.3" y1="75" y2="75.707" gradientUnits="userSpaceOnUse"><stop stop-color="#DEDFE3" offset="0"/><stop stop-color="#DADBDF" offset=".1783"/><stop stop-color="#CECFD3" offset=".3611"/><stop stop-color="#B9BCBF" offset=".546"/><stop stop-color="#9CA0A2" offset=".7324"/><stop stop-color="#787D7E" offset=".9181"/><stop stop-color="#656B6C" offset="1"/></linearGradient><g transform="matrix(.19531 0 0 .19531 -13.955 -13.945)"><path class="st0" d="m342.5 162.4v169.6c0 9.3-7.6 17-17 17h-159.3c-9.3 0-17-7.6-17-17v-52.9h134.6c5 0 9.2-4.1 9.2-9.2v-66.2c0-5.1-4.1-9.2-9.2-9.2h-134.6v-76.5c0-9.3 7.6-17 17-17h114.9v51c0 5.7 4.6 10.4 10.4 10.4z" fill="#fff"/><path class="st1" d="m325.5 353h-159.3c-11.6 0-21-9.4-21-21v-52.9c0-2.2 1.8-4 4-4h134.6c2.8 0 5.2-2.3 5.2-5.2v-66.2c0-2.8-2.3-5.2-5.2-5.2h-134.6c-2.2 0-4-1.8-4-4v-76.5c0-11.6 9.4-21 21-21h114.9c2.2 0 4 1.8 4 4v51c0 3.5 2.9 6.4 6.4 6.4h51c2.2 0 4 1.8 4 4v169.6c0 11.6-9.4 21-21 21zm-172.3-69.8v48.8c0 7.2 5.8 13 13 13h159.3c7.2 0 13-5.8 13-13v-165.6h-47c-7.9 0-14.4-6.4-14.4-14.4v-47h-110.9c-7.2 0-13 5.8-13 13v72.7h130.6c7.3 0 13.2 5.9 13.2 13.2v66.1c0 7.3-5.9 13.2-13.2 13.2z" fill="#434a54"/><path class="st2" d="m293 203.8v66.2c0 5.1-4.1 9.2-9.2 9.2h-167.1c-5.1 0-9.2-4.1-9.2-9.2v-66.2c0-5.1 4.1-9.2 9.2-9.2h167.1c5.1 0.1 9.2 4.2 9.2 9.2z" fill="#fc0f1a"/><path class="st1" d="m283.8 283.2h-167.1c-7.3 0-13.2-5.9-13.2-13.2v-66.2c0-7.3 5.9-13.2 13.2-13.2h167.1c7.3 0 13.2 5.9 13.2 13.2v66.2c0 7.3-5.9 13.2-13.2 13.2zm-167.1-84.5c-2.8 0-5.2 2.3-5.2 5.2v66.1c0 2.9 2.3 5.2 5.2 5.2h167.1c2.8 0 5.2-2.3 5.2-5.2v-66.2c0-2.8-2.3-5.2-5.2-5.2h-167.1z" fill="#434a54"/><path class="st3" d="m342.5 162.4h-51c-5.7 0-10.4-4.6-10.4-10.4v-51z" fill="#e8e8e8"/><path class="st1" d="m342.5 166.4h-51c-7.9 0-14.4-6.4-14.4-14.4v-51c0-1.6 1-3.1 2.5-3.7s3.2-0.3 4.4 0.9l61.2 61.2c0.9 0.7 1.4 1.8 1.4 3.1-0.1 2.1-1.9 3.9-4.1 3.9zm-57.4-55.7v41.3c0 3.5 2.9 6.4 6.4 6.4h41.4z" fill="#434a54"/><path class="st0" d="m137.1 262.5c-3.1 0-5.6-2.4-5.6-5.2s2.5-5.1 5.6-5.1c3 0 5.5 2.3 5.5 5.1s-2.5 5.2-5.5 5.2z" fill="#fff"/><path class="st0" d="m163 245.9v12.2c0 2.3-2.1 4.4-4.7 4.4-2.5 0-4.7-2-4.7-4.4v-38.4c0-2.6 2.4-4.8 5.2-4.8h9.8c12.5 0 17 7.5 17 15.6 0 9.9-6.7 15.4-17 15.4zm0-8.4h5.7c5 0 7.7-2.2 7.7-7 0-3.5-1.4-7.1-7.7-7.1h-5.7z" fill="#fff"/><path class="st0" d="m207.7 261.9h-7.5c-2.8 0-5.2-2.2-5.2-4.8v-37.5c0-2.6 2.4-4.8 5.2-4.8h7.5c15.1 0 20.3 8.3 20.3 17.5v11.5c0 9.5-5.1 18.1-20.3 18.1zm11-29.5c0-5.1-2.6-9.1-9.8-9.1h-4.5v30.1h4.5c7.3 0 9.8-4.3 9.8-9.6z" fill="#fff"/><path class="st0" d="m247.3 258.3c0 2.3-2.1 4.3-4.7 4.3s-4.7-2-4.7-4.3v-38.7c0-2.3 2.2-4.7 5.1-4.7h18.1c2.5 0 4.7 2 4.7 4.3 0 2.4-2.1 4.1-4.7 4.1h-13.9v10.8h12.6c2.3 0 4.6 1.8 4.6 4.2s-2 4.3-4.6 4.3h-12.6v15.7z" fill="#fff"/></g></svg>
