<?xml version="1.0" encoding="UTF-8"?>
<svg width="25px" height="31px" viewBox="0 0 25 31" version="1.1" xmlns="http://www.w3.org/2000/svg" xmlns:xlink="http://www.w3.org/1999/xlink">
    <title>print</title>
    <g id="Page-1" stroke="none" stroke-width="1" fill="none" fill-rule="evenodd">
        <g id="Artboard" transform="translate(-35.000000, -8.000000)" fill-rule="nonzero">
            <g id="print" transform="translate(35.000000, 8.000000)">
                <g id="page-pile" transform="translate(0.000000, 0.000000)">
                    <g id="Group" transform="translate(11.500000, 14.000000) scale(-1, 1) translate(-11.500000, -14.000000) ">
                        <path d="M4.0372081,2.8 L14.4952306,2.8 L14.4952306,7.20625002 C14.4952306,7.95625002 15.1087422,8.55625003 15.854396,8.55625003 L15.8638352,8.55625003 L20.3,8.55625003 L20.3,24.08125 C20.3,24.7562499 19.7525584,25.3 19.0729757,25.3 L4.0372081,25.3 C3.3576254,25.3 2.81018379,24.7562499 2.81018379,24.08125 L2.81018379,4.01875001 C2.81018379,3.34375001 3.3576254,2.8 4.0372081,2.8 Z" id="Path" fill="#FFFFFF"></path>
                        <path d="M1.56281702,4.7 L12.3259035,4.7 L12.3259035,9.20416669 C12.3259035,9.97083335 12.9573115,10.5841667 13.7247162,10.5841667 L13.7344308,10.5841667 L18.3,10.5841667 L18.3,26.4541667 C18.3,27.1441666 17.7365893,27.7 17.037183,27.7 L1.56281702,27.7 C0.863410665,27.7 0.3,27.1441666 0.3,26.4541667 L0.3,5.94583334 C0.3,5.25583334 0.863410665,4.7 1.56281702,4.7 Z" id="Path" fill="#FFFFFF"></path>
                        <path d="M5.9821162,0 C4.88723296,0 4,0.881250003 4,1.96875001 L4,22.03125 C4,23.11875 4.88723296,24 5.9821162,24 L21.0178838,24 C22.1127671,24 23,23.11875 23,22.03125 L23,6.14062502 L23,6.13125003 C23,6.09166551 22.9936959,6.05349554 22.9821135,6.01760162 C22.9670841,5.96881179 22.9428366,5.92540154 22.9101671,5.88923438 C22.8926682,5.86876107 22.8730178,5.85017462 22.8515526,5.83380471 L17.1266356,0.147492121 C17.0574728,0.0580068002 16.9488073,0 16.8271239,0 L5.9821162,0 Z M5.9821162,0.750000003 L16.4401387,0.750000003 L16.4401387,5.15625002 C16.4401387,5.90625002 17.0536503,6.50625003 17.7993041,6.50625003 L17.8087433,6.50625003 L22.2449081,6.50625003 L22.2449081,22.03125 C22.2449081,22.7062499 21.6974665,23.25 21.0178838,23.25 L5.9821162,23.25 C5.3025335,23.25 4.75509189,22.7062499 4.75509189,22.03125 L4.75509189,1.96875001 C4.75509189,1.29375001 5.3025335,0.750000003 5.9821162,0.750000003 Z M17.2046699,1.284375 L21.7163438,5.75625002 L17.8087433,5.75625002 C17.4783912,5.75625002 17.2046699,5.48437502 17.2046699,5.15625002 L17.2046699,1.284375 Z" id="Shape" fill="#434A54"></path>
                        <path d="M17.2046699,1.284375 L21.7163438,5.75625002 L17.8087433,5.75625002 C17.4783912,5.75625002 17.2046699,5.48437502 17.2046699,5.15625002 L17.2046699,1.284375 Z" id="Path" fill="#E8E8E8"></path>
                        <path d="M5.9372081,0.8 L16.3952306,0.8 L16.3952306,5.20625002 C16.3952306,5.95625002 17.0087422,6.55625003 17.754396,6.55625003 L17.7638352,6.55625003 L22.2,6.55625003 L22.2,22.08125 C22.2,22.7562499 21.6525584,23.3 20.9729757,23.3 L5.9372081,23.3 C5.2576254,23.3 4.71018379,22.7562499 4.71018379,22.08125 L4.71018379,2.01875001 C4.71018379,1.34375001 5.2576254,0.8 5.9372081,0.8 Z" id="Path" fill="#FFFFFF"></path>
                        <path d="M1.886,4.003 L1.88597672,4.75365444 C1.25163757,4.80208334 0.755091885,5.32589286 0.755091885,5.96875001 L0.755091885,5.96875001 L0.755091885,26.03125 C0.755091885,26.7062499 1.3025335,27.25 1.9821162,27.25 L1.9821162,27.25 L17.0178838,27.25 C17.6974665,27.25 18.2449081,26.7062499 18.2449081,26.03125 L18.2449081,26.03125 L18.244,26 L19,26 L19,26.03125 C19,27.0693182 18.1915915,27.9194602 17.1658352,27.9946011 L17.0178838,28 L1.9821162,28 C0.88723296,28 0,27.11875 0,26.03125 L0,26.03125 L0,5.96875001 C0,4.88125 0.88723296,4 1.9821162,4 L1.886,4.003 Z" id="Path" fill="#434A54"></path>
                        <path d="M3.8865178,2.003 L4.0372081,2.8 C3.40239505,2.84795857 2.75509189,3.32555804 2.75509189,3.96875001 L2.81018379,3.96875001 L2.75509189,24.03125 C2.75509189,24.7062499 3.3025335,25.25 3.9821162,25.25 L19.0178838,25.25 C19.6974665,25.25 20.2449081,24.7062499 20.2449081,24.03125 L20.2445178,24 L20.9995178,24 L21,24.03125 C21,25.0693182 20.1915915,25.9194602 19.1658352,25.9946011 L19.0178838,26 L3.9821162,26 C2.88723296,26 2,25.11875 2,24.03125 L1.8865178,4 C1.8865178,2.91249999 3.21033085,2.003 4.30521409,2.003 L3.8865178,2.003 Z" id="Path" fill="#434A54"></path>
                    </g>
                </g>
                <g id="noun_Print-Document_582138" transform="translate(8.000000, 14.000000)" fill="#FFFFFF" stroke="#434A54">
                    <path d="M8,-0.5 C9.09801603,-0.5 10.165246,-0.294475817 11.1711021,0.111227734 C12.7896952,0.762312779 14.1216245,1.8623802 15.0491732,3.23563697 C15.9766396,4.60877187 16.5,6.25535131 16.5,8.00065701 C16.5,10.3438739 15.5469009,12.4688364 14.0076972,14.0079136 C12.4685007,15.5469838 10.3433765,16.5 8,16.5 C5.65659467,16.5 3.53144704,15.546961 1.99224469,14.0078008 C0.453079053,12.4686773 -0.5,10.3436322 -0.5,8.000219 C-0.5,7.64616738 -0.478106602,7.29072232 -0.434891349,6.94406283 C-0.17216,4.82214076 0.865700815,2.96091473 2.37358584,1.63027897 C3.88124644,0.299841237 5.85864274,-0.5 8,-0.5 Z" id="Shape"></path>
                </g>
                <g id="noun_print_1199939" transform="translate(10.250000, 16.000000)" fill="#434A54">
                    <path d="M10.6545639,2.33250927 L10.6545639,0.463535229 C10.6545639,0.207663782 10.450412,1.55027506e-14 10.1988677,1.55027506e-14 L1.25567779,1.55027506e-14 C1.00413349,1.55027506e-14 0.799981588,0.207663782 0.799981588,0.463535229 L0.799981588,2.33250927 C0.197551208,2.40512979 -0.272727273,2.92150803 -0.272727273,3.55377009 L-0.272727273,8.13720643 C-0.272727273,8.81891224 0.272285386,9.37330037 0.942462601,9.37330037 L2.25912083,9.37330037 L2.25912083,11.5364648 C2.25912083,11.7923362 2.46327273,12 2.71481703,12 L8.89162716,12 C9.14317146,12 9.34732336,11.7923362 9.34732336,11.5364648 L9.34732336,9.37330037 L10.5120829,9.37330037 C11.1822601,9.37330037 11.7272727,8.81891224 11.7272727,8.13720643 L11.7272727,3.55377009 C11.7272727,2.92150803 11.2569942,2.40512979 10.6545639,2.33250927 Z M1.71137399,0.927070457 L9.74317146,0.927070457 L9.74317146,2.31767614 L1.71137399,2.31767614 L1.71137399,0.927070457 Z M8.43593096,11.0729295 L3.17051323,11.0729295 L3.17051323,7.77688504 L8.43593096,7.77688504 L8.43593096,11.0729295 L8.43593096,11.0729295 Z M10.8158803,8.13720643 C10.8158803,8.30778739 10.6797791,8.44622991 10.5120829,8.44622991 L9.34732336,8.44622991 L9.34732336,7.77688504 L9.55026007,7.77688504 C9.80180437,7.77688504 10.0059563,7.56922126 10.0059563,7.31334981 C10.0059563,7.05747837 9.80180437,6.84981459 9.55026007,6.84981459 L1.90428539,6.84981459 C1.65274108,6.84981459 1.44858918,7.05747837 1.44858918,7.31334981 C1.44858918,7.56922126 1.65274108,7.77688504 1.90428539,7.77688504 L2.25912083,7.77688504 L2.25912083,8.44622991 L0.942462601,8.44622991 C0.774766398,8.44622991 0.638665132,8.30778739 0.638665132,8.13720643 L0.638665132,3.55377009 C0.638665132,3.38318912 0.774766398,3.2447466 0.942462601,3.2447466 L10.5120829,3.2447466 C10.6797791,3.2447466 10.8158803,3.38318912 10.8158803,3.55377009 L10.8158803,8.13720643 Z M9.03927273,3.97867738 C8.50641197,3.97867738 8.07258918,4.41996292 8.07258918,4.96199011 C8.07258918,5.50401731 8.50641197,5.94530284 9.03927273,5.94530284 C9.57213349,5.94530284 10.0059563,5.50401731 10.0059563,4.96199011 C10.0059563,4.41996292 9.57213349,3.97867738 9.03927273,3.97867738 Z M6.65719678,3.97867738 C6.12463982,3.97867738 5.69112083,4.41996292 5.69112083,4.96199011 C5.69112083,5.50401731 6.12463982,5.94530284 6.65719678,5.94530284 C7.19005754,5.94530284 7.62388032,5.50401731 7.62388032,4.96199011 C7.62388032,4.41996292 7.18975374,3.97867738 6.65719678,3.97867738 Z" id="Shape"></path>
                </g>
            </g>
        </g>
    </g>
</svg>